@startuml
'https://plantuml.com/class-diagram

abstract class WindowAssigner
class TumblingProcessingTimeWindows

WindowAssigner <|-- TumblingProcessingTimeWindows
WindowAssigner <|-- SlidingProcessingTimeWindows
WindowAssigner <|-- ProcessingTimeSessionWindows
WindowAssigner <|-- DynamicProcessingTimeSessionWindows
WindowAssigner <|-- GlobalWindows
WindowAssigner <|-- TumblingEventTimeWindows
WindowAssigner <|-- SlidingEventTimeWindows
WindowAssigner <|-- EventTimeSessionWindows



@enduml